<svg width="618" height="824" viewBox="0 0 618 824" fill="none" xmlns="http://www.w3.org/2000/svg">
<path d="M391.786 -55.5357L305.679 27.5594" stroke="url(#paint0_linear_179_129)" stroke-opacity="0.7" stroke-width="3" stroke-linecap="round"/>
<path d="M667.776 230.457L581.669 313.552" stroke="url(#paint1_linear_179_129)" stroke-opacity="0.7" stroke-width="3" stroke-linecap="round"/>
<path d="M442.128 33.9667L356.021 117.062" stroke="url(#paint2_linear_179_129)" stroke-opacity="0.7" stroke-width="3" stroke-linecap="round"/>
<path d="M292.876 177.998L249.822 219.546" stroke="url(#paint3_linear_179_129)" stroke-opacity="0.7" stroke-width="3" stroke-linecap="round"/>
<path d="M568.866 463.991L525.813 505.539" stroke="url(#paint4_linear_179_129)" stroke-opacity="0.7" stroke-width="3" stroke-linecap="round"/>
<path d="M626.653 -6.02155L583.6 35.526" stroke="url(#paint5_linear_179_129)" stroke-opacity="0.7" stroke-width="3" stroke-linecap="round"/>
<path d="M262.851 345.055L219.797 386.603" stroke="url(#paint6_linear_179_129)" stroke-opacity="0.7" stroke-width="3" stroke-linecap="round"/>
<path d="M538.839 631.048L495.785 672.596" stroke="url(#paint7_linear_179_129)" stroke-opacity="0.7" stroke-width="3" stroke-linecap="round"/>
<path d="M236.794 94.0357L57.4042 267.151" stroke="url(#paint8_linear_179_129)" stroke-opacity="0.7" stroke-width="3" stroke-linecap="round"/>
<path d="M512.784 380.029L333.394 553.144" stroke="url(#paint9_linear_179_129)" stroke-opacity="0.7" stroke-width="3" stroke-linecap="round"/>
<path d="M579.899 -98.9858L455.044 21.5021" stroke="url(#paint10_linear_179_129)" stroke-opacity="0.7" stroke-width="3" stroke-linecap="round"/>
<path d="M193.853 273.557L68.9973 394.045" stroke="url(#paint11_linear_179_129)" stroke-opacity="0.7" stroke-width="3" stroke-linecap="round"/>
<path d="M469.843 559.55L344.988 680.038" stroke="url(#paint12_linear_179_129)" stroke-opacity="0.7" stroke-width="3" stroke-linecap="round"/>
<path d="M539.502 75.9945L540.582 74.9529L542.665 77.1117L541.586 78.1533L539.502 75.9945ZM308.379 303.203C307.783 303.778 306.833 303.761 306.258 303.165C305.683 302.569 305.699 301.619 306.296 301.044L308.379 303.203ZM541.586 78.1533L308.379 303.203L306.296 301.044L539.502 75.9945L541.586 78.1533Z" fill="url(#paint13_linear_179_129)" fill-opacity="0.7"/>
<path d="M815.493 361.988L816.572 360.946L818.655 363.105L817.576 364.146L815.493 361.988ZM584.369 589.196C583.773 589.771 582.823 589.754 582.248 589.158C581.673 588.562 581.69 587.612 582.286 587.037L584.369 589.196ZM817.576 364.146L584.369 589.196L582.286 587.037L815.493 361.988L817.576 364.146Z" fill="url(#paint14_linear_179_129)" fill-opacity="0.7"/>
<path d="M343.329 405.475L287.36 459.486" stroke="url(#paint15_linear_179_129)" stroke-opacity="0.7" stroke-width="3" stroke-linecap="round"/>
<path d="M619.317 691.468L563.348 745.479" stroke="url(#paint16_linear_179_129)" stroke-opacity="0.7" stroke-width="3" stroke-linecap="round"/>
<path d="M608.502 147.493L609.582 146.451L611.665 148.61L610.586 149.652L608.502 147.493ZM555.334 202.971C554.737 203.546 553.788 203.53 553.213 202.933C552.637 202.337 552.654 201.388 553.25 200.812L555.334 202.971ZM610.586 149.652L555.334 202.971L553.25 200.812L608.502 147.493L610.586 149.652Z" fill="url(#paint17_linear_179_129)" fill-opacity="0.7"/>
<path d="M494.017 260.058L407.91 343.153" stroke="url(#paint18_linear_179_129)" stroke-opacity="0.7" stroke-width="3" stroke-linecap="round"/>
<defs>
<linearGradient id="paint0_linear_179_129" x1="386.979" y1="-50.973" x2="306.171" y2="27.0085" gradientUnits="userSpaceOnUse">
<stop stop-color="#C46A84" stop-opacity="0"/>
<stop offset="1" stop-color="#C46A84"/>
</linearGradient>
<linearGradient id="paint1_linear_179_129" x1="662.969" y1="235.02" x2="582.161" y2="313.002" gradientUnits="userSpaceOnUse">
<stop stop-color="#C46A84" stop-opacity="0"/>
<stop offset="1" stop-color="#C46A84"/>
</linearGradient>
<linearGradient id="paint2_linear_179_129" x1="437.321" y1="38.5294" x2="356.513" y2="116.511" gradientUnits="userSpaceOnUse">
<stop stop-color="#C46A84" stop-opacity="0"/>
<stop offset="1" stop-color="#C46A84"/>
</linearGradient>
<linearGradient id="paint3_linear_179_129" x1="290.453" y1="180.26" x2="250.049" y2="219.25" gradientUnits="userSpaceOnUse">
<stop stop-color="#C46A84" stop-opacity="0"/>
<stop offset="1" stop-color="#C46A84"/>
</linearGradient>
<linearGradient id="paint4_linear_179_129" x1="566.444" y1="466.253" x2="526.04" y2="505.244" gradientUnits="userSpaceOnUse">
<stop stop-color="#C46A84" stop-opacity="0"/>
<stop offset="1" stop-color="#C46A84"/>
</linearGradient>
<linearGradient id="paint5_linear_179_129" x1="624.231" y1="-3.75996" x2="583.827" y2="35.2308" gradientUnits="userSpaceOnUse">
<stop stop-color="#C46A84" stop-opacity="0"/>
<stop offset="1" stop-color="#C46A84"/>
</linearGradient>
<linearGradient id="paint6_linear_179_129" x1="260.428" y1="347.317" x2="220.024" y2="386.308" gradientUnits="userSpaceOnUse">
<stop stop-color="#C46A84" stop-opacity="0"/>
<stop offset="1" stop-color="#C46A84"/>
</linearGradient>
<linearGradient id="paint7_linear_179_129" x1="536.416" y1="633.31" x2="496.012" y2="672.301" gradientUnits="userSpaceOnUse">
<stop stop-color="#C46A84" stop-opacity="0"/>
<stop offset="1" stop-color="#C46A84"/>
</linearGradient>
<linearGradient id="paint8_linear_179_129" x1="226.82" y1="103.584" x2="58.4701" y2="266.046" gradientUnits="userSpaceOnUse">
<stop stop-color="#C46A84" stop-opacity="0"/>
<stop offset="1" stop-color="#C46A84"/>
</linearGradient>
<linearGradient id="paint9_linear_179_129" x1="502.811" y1="389.577" x2="334.46" y2="552.039" gradientUnits="userSpaceOnUse">
<stop stop-color="#C46A84" stop-opacity="0"/>
<stop offset="1" stop-color="#C46A84"/>
</linearGradient>
<linearGradient id="paint10_linear_179_129" x1="572.946" y1="-92.3521" x2="455.774" y2="20.7211" gradientUnits="userSpaceOnUse">
<stop stop-color="#C46A84" stop-opacity="0"/>
<stop offset="1" stop-color="#C46A84"/>
</linearGradient>
<linearGradient id="paint11_linear_179_129" x1="186.899" y1="280.191" x2="69.7275" y2="393.264" gradientUnits="userSpaceOnUse">
<stop stop-color="#C46A84" stop-opacity="0"/>
<stop offset="1" stop-color="#C46A84"/>
</linearGradient>
<linearGradient id="paint12_linear_179_129" x1="462.89" y1="566.184" x2="345.718" y2="679.257" gradientUnits="userSpaceOnUse">
<stop stop-color="#C46A84" stop-opacity="0"/>
<stop offset="1" stop-color="#C46A84"/>
</linearGradient>
<linearGradient id="paint13_linear_179_129" x1="527.628" y1="89.5382" x2="308.772" y2="300.738" gradientUnits="userSpaceOnUse">
<stop stop-color="#C46A84" stop-opacity="0"/>
<stop offset="1" stop-color="#C46A84"/>
</linearGradient>
<linearGradient id="paint14_linear_179_129" x1="803.618" y1="375.531" x2="584.763" y2="586.731" gradientUnits="userSpaceOnUse">
<stop stop-color="#C46A84" stop-opacity="0"/>
<stop offset="1" stop-color="#C46A84"/>
</linearGradient>
<linearGradient id="paint15_linear_179_129" x1="340.191" y1="408.427" x2="287.666" y2="459.115" gradientUnits="userSpaceOnUse">
<stop stop-color="#C46A84" stop-opacity="0"/>
<stop offset="1" stop-color="#C46A84"/>
</linearGradient>
<linearGradient id="paint16_linear_179_129" x1="616.179" y1="694.42" x2="563.654" y2="745.108" gradientUnits="userSpaceOnUse">
<stop stop-color="#C46A84" stop-opacity="0"/>
<stop offset="1" stop-color="#C46A84"/>
</linearGradient>
<linearGradient id="paint17_linear_179_129" x1="606.446" y1="151.486" x2="554.594" y2="201.524" gradientUnits="userSpaceOnUse">
<stop stop-color="#C46A84" stop-opacity="0"/>
<stop offset="1" stop-color="#C46A84"/>
</linearGradient>
<linearGradient id="paint18_linear_179_129" x1="489.209" y1="264.621" x2="408.401" y2="342.602" gradientUnits="userSpaceOnUse">
<stop stop-color="#C46A84" stop-opacity="0"/>
<stop offset="1" stop-color="#C46A84"/>
</linearGradient>
</defs>
</svg>
