<svg xmlns="http://www.w3.org/2000/svg" version="1.1" xmlns:xlink="http://www.w3.org/1999/xlink" xmlns:svgjs="http://svgjs.dev/svgjs" width="1440" height="560" preserveAspectRatio="none" viewBox="0 0 1440 560"><g mask="url(&quot;#SvgjsMask1091&quot;)" fill="none"><rect width="1440" height="560" x="0" y="0" fill="rgba(255, 255, 255, 1)"></rect><path d="M127.3264908586282 126.83375318788993L171.08837724942686 23.73720960121659-5.437381325982457 9.642651808355282z" fill="rgba(208, 47, 127, 0.4)" class="triangle-float1"></path><path d="M73.116,157.782C107.558,158.531,145.837,154.86,164.012,125.595C182.9,95.183,175.142,55.446,155.091,25.788C137.284,-0.552,104.895,-9.85,73.116,-8.855C43.306,-7.921,15.747,5.597,-0.423,30.658C-18.197,58.204,-27.592,93.407,-11.177,121.783C5.22,150.128,40.378,157.07,73.116,157.782" fill="rgba(208, 47, 127, 0.4)" class="triangle-float1"></path><path d="M49.021,124.672C77.751,127.221,108.162,116.471,122.633,91.521C137.142,66.505,130.273,35.485,114.987,10.936C100.645,-12.096,76.141,-27.498,49.021,-26.694C23.139,-25.927,1.173,-8.456,-10.503,14.655C-21.1,35.63,-16.164,59.531,-4.981,80.2C6.912,102.182,24.126,122.463,49.021,124.672" fill="rgba(208, 47, 127, 0.4)" class="triangle-float2"></path><path d="M1418.849,200.738C1458.103,201.313,1493.404,179.206,1514.008,145.789C1535.781,110.477,1544.515,66.197,1524.058,30.107C1503.367,-6.396,1460.796,-23.087,1418.849,-22.088C1378.703,-21.132,1341.265,-0.302,1321.976,34.919C1303.384,68.868,1308.878,109.647,1328.403,143.068C1347.735,176.158,1380.53,200.176,1418.849,200.738" fill="rgba(208, 47, 127, 0.4)" class="triangle-float3"></path><path d="M1311.4663769306826-2.7365698313181923L1383.2903286241356 175.52287893437176 1489.0161543205083 44.96235740960067z" fill="rgba(208, 47, 127, 0.4)" class="triangle-float3"></path><path d="M1404.6482959276975-74.36820968895925L1268.7334408727063 24.379712696176227 1503.396218312833 61.54664536603191z" fill="rgba(208, 47, 127, 0.4)" class="triangle-float3"></path><path d="M137.105,757.237C198.587,761.67,257.425,725.726,286.876,671.575C315.176,619.54,303.124,557.649,273.573,506.314C243.944,454.845,196.47,413.043,137.105,411.403C75.122,409.691,13.912,442.571,-13.08,498.395C-37.592,549.091,-7.669,603.668,20.591,652.374C48.697,700.814,81.247,753.209,137.105,757.237" fill="rgba(208, 47, 127, 0.4)" class="triangle-float3"></path><path d="M117.958,690.633C162.013,691.151,201.239,664.912,223.545,626.918C246.153,588.408,249.554,541.509,228.682,502.031C206.367,459.824,165.65,429.408,117.958,427.211C66.312,424.832,11.666,444.962,-11.964,490.947C-34.261,534.339,-10.017,583.59,16.589,624.483C40.173,660.73,74.717,690.124,117.958,690.633" fill="rgba(208, 47, 127, 0.4)" class="triangle-float2"></path><path d="M155.61658224036861 590.5953738081319L143.89749465135552 423.00461336448143-11.974178203281838 602.3144613971449z" fill="rgba(208, 47, 127, 0.4)" class="triangle-float3"></path><path d="M1395.644,618.557C1429.054,618.352,1450.116,585.577,1464.743,555.538C1477.277,529.796,1478.485,500.84,1465.35,475.4C1450.929,447.469,1427.049,423.07,1395.644,421.711C1362.187,420.263,1330.187,439.216,1314.643,468.878C1300.028,496.767,1310.079,528.702,1325.065,556.394C1341.058,585.946,1362.043,618.763,1395.644,618.557" fill="rgba(208, 47, 127, 0.4)" class="triangle-float1"></path><path d="M1471.643,771.587C1534.441,771.367,1592.243,733.625,1619.978,677.284C1645.067,626.318,1626.375,567.81,1595.395,520.195C1567.607,477.486,1522.527,451.955,1471.643,449.3C1414.983,446.344,1354.408,458.548,1323.301,505.998C1289.544,557.49,1291.474,624.574,1321.498,678.329C1352.29,733.459,1408.496,771.808,1471.643,771.587" fill="rgba(208, 47, 127, 0.4)" class="triangle-float3"></path><path d="M1515.81237363805 510.9079937843967L1403.3984317697618 386.0596631041945 1390.9640429578478 623.3219356526849z" fill="rgba(208, 47, 127, 0.4)" class="triangle-float1"></path></g><defs><mask id="SvgjsMask1091"><rect width="1440" height="560" fill="#ffffff"></rect></mask><style>
                @keyframes float1 {
                    0%{transform: translate(0, 0)}
                    50%{transform: translate(-10px, 0)}
                    100%{transform: translate(0, 0)}
                }

                .triangle-float1 {
                    animation: float1 5s infinite;
                }

                @keyframes float2 {
                    0%{transform: translate(0, 0)}
                    50%{transform: translate(-5px, -5px)}
                    100%{transform: translate(0, 0)}
                }

                .triangle-float2 {
                    animation: float2 4s infinite;
                }

                @keyframes float3 {
                    0%{transform: translate(0, 0)}
                    50%{transform: translate(0, -10px)}
                    100%{transform: translate(0, 0)}
                }

                .triangle-float3 {
                    animation: float3 6s infinite;
                }
            </style></defs></svg>